<svg xmlns="http://www.w3.org/2000/svg" xmlns:xlink="http://www.w3.org/1999/xlink" xmlns:lucid="lucid" width="355" height="1540"><g transform="translate(-426.0001716904492 -120)" lucid:page-tab-id="0_0"><path d="M648 140c17.67 0 32 17.9 32 40s-14.33 40-32 40h-96c-17.67 0-32-17.9-32-40s14.33-40 32-40z" stroke="#5e5e5e" stroke-width="3" fill="#fff"/><use xlink:href="#a" transform="matrix(1,0,0,1,525,145) translate(49.78395061728395 39.65277777777778)"/><path d="M600 222.5v17.53" stroke="#5e5e5e" stroke-width="2" fill="none"/><path d="M601 222.53h-2v-1.03h2z" stroke="#5e5e5e" stroke-width=".05" fill="#5e5e5e"/><path d="M600 255.3l-4.64-14.27h9.28z" stroke="#5e5e5e" stroke-width="2" fill="#5e5e5e"/><path d="M490 266a6 6 0 0 1 6-6h208a6 6 0 0 1 6 6v88a6 6 0 0 1-6 6H496a6 6 0 0 1-6-6z" stroke="#5e5e5e" stroke-width="3" fill="#fff"/><use xlink:href="#b" transform="matrix(1,0,0,1,502,272) translate(18.355555555555554 43.19166666666667)"/><use xlink:href="#c" transform="matrix(1,0,0,1,502,272) translate(123.71851851851851 43.19166666666667)"/><use xlink:href="#d" transform="matrix(1,0,0,1,502,272) translate(142.08888888888887 43.19166666666667)"/><path d="M490 406a6 6 0 0 1 6-6h208a6 6 0 0 1 6 6v88a6 6 0 0 1-6 6H496a6 6 0 0 1-6-6z" stroke="#5e5e5e" stroke-width="3" fill="#fff"/><use xlink:href="#e" transform="matrix(1,0,0,1,502,412) translate(13.051851851851865 43.19166666666667)"/><use xlink:href="#c" transform="matrix(1,0,0,1,502,412) translate(129.02222222222224 43.19166666666667)"/><use xlink:href="#f" transform="matrix(1,0,0,1,502,412) translate(147.3925925925926 43.19166666666667)"/><path d="M600 362.46v17.57" stroke="#5e5e5e" stroke-width="2" fill="none"/><path d="M601 362.5h-2v-1.04h2z" stroke="#5e5e5e" stroke-width=".05" fill="#5e5e5e"/><path d="M600 395.3l-4.64-14.27h9.28z" stroke="#5e5e5e" stroke-width="2" fill="#5e5e5e"/><path d="M490 546a6 6 0 0 1 6-6h208a6 6 0 0 1 6 6v88a6 6 0 0 1-6 6H496a6 6 0 0 1-6-6z" stroke="#5e5e5e" stroke-width="3" fill="#fff"/><use xlink:href="#g" transform="matrix(1,0,0,1,502,552) translate(62.148148148148145 43.19166666666667)"/><use xlink:href="#c" transform="matrix(1,0,0,1,502,552) translate(103.62962962962962 43.19166666666667)"/><use xlink:href="#h" transform="matrix(1,0,0,1,502,552) translate(122 43.19166666666667)"/><path d="M600 502.46v17.57" stroke="#5e5e5e" stroke-width="2" fill="none"/><path d="M601 502.5h-2v-1.04h2z" stroke="#5e5e5e" stroke-width=".05" fill="#5e5e5e"/><path d="M600 535.3l-4.64-14.27h9.28z" stroke="#5e5e5e" stroke-width="2" fill="#5e5e5e"/><path d="M595 683.33a9 9 0 0 1 10 0l95 63.34a4 4 0 0 1 0 6.66l-95 63.34a9 9 0 0 1-10 0l-95-63.34a4 4 0 0 1 0-6.66z" stroke="#5e5e5e" stroke-width="3" fill="#fff"/><use xlink:href="#i" transform="matrix(1,0,0,1,500,685) translate(44.982777777777784 57.69166666666667)"/><use xlink:href="#j" transform="matrix(1,0,0,1,500,685) translate(34.879074074074076 83.29166666666669)"/><use xlink:href="#k" transform="matrix(1,0,0,1,500,685) translate(65.69388888888889 83.29166666666669)"/><path d="M600 642.46v19.35" stroke="#5e5e5e" stroke-width="2" fill="none"/><path d="M601 642.5h-2v-1.04h2z" stroke="#5e5e5e" stroke-width=".05" fill="#5e5e5e"/><path d="M600 677.08l-4.64-14.27h9.28z" stroke="#5e5e5e" stroke-width="2" fill="#5e5e5e"/><path d="M601 880.03h-2v-10.25h2zm0-31.6h-2V820.7h2z" stroke="#008a0e" stroke-width=".05" fill="#008a0e"/><path d="M600 819.7l1-.07v1.08h-2v-1.07z" fill="#008a0e"/><path d="M600 819.66l1.02-.06v1.14H599v-1.14zm-.98 1.03H601v-1.05l-.98.06-.98-.05z" stroke="#008a0e" stroke-width=".05" fill="#008a0e"/><path d="M600 895.3l-4.64-14.27h9.28z" fill="#008a0e"/><path d="M600 898.54l-6-18.5h12zm-3.26-16.5l3.26 10.02 3.26-10.03z" stroke="#008a0e" stroke-width=".05" fill="#008a0e"/><use xlink:href="#l" transform="matrix(1,0,0,1,583.7037037037037,848.4447018622038) translate(0 14.222222222222223)"/><path d="M490 906a6 6 0 0 1 6-6h208a6 6 0 0 1 6 6v88a6 6 0 0 1-6 6H496a6 6 0 0 1-6-6z" stroke="#5e5e5e" stroke-width="3" fill="#fff"/><use xlink:href="#b" transform="matrix(1,0,0,1,502,912) translate(39.0962962962963 28.94166666666667)"/><use xlink:href="#m" transform="matrix(1,0,0,1,502,912) translate(144.45925925925926 28.94166666666667)"/><use xlink:href="#n" transform="matrix(1,0,0,1,502,912) translate(21.318518518518516 54.54166666666668)"/><use xlink:href="#o" transform="matrix(1,0,0,1,502,912) translate(126.68148148148147 54.54166666666668)"/><use xlink:href="#p" transform="matrix(1,0,0,1,502,912) translate(145.05185185185184 54.54166666666668)"/><path d="M490 1046a6 6 0 0 1 6-6h208a6 6 0 0 1 6 6v88a6 6 0 0 1-6 6H496a6 6 0 0 1-6-6z" stroke="#5e5e5e" stroke-width="3" fill="#fff"/><use xlink:href="#e" transform="matrix(1,0,0,1,502,1052) translate(33.7925925925926 28.94166666666667)"/><use xlink:href="#m" transform="matrix(1,0,0,1,502,1052) translate(149.76296296296294 28.94166666666667)"/><use xlink:href="#q" transform="matrix(1,0,0,1,502,1052) translate(16.014814814814827 54.54166666666668)"/><use xlink:href="#o" transform="matrix(1,0,0,1,502,1052) translate(131.98518518518517 54.54166666666668)"/><use xlink:href="#r" transform="matrix(1,0,0,1,502,1052) translate(150.35555555555555 54.54166666666668)"/><path d="M495 1186a6 6 0 0 1 6-6h208a6 6 0 0 1 6 6v88a6 6 0 0 1-6 6H501a6 6 0 0 1-6-6z" stroke="#5e5e5e" stroke-width="3" fill="#fff"/><use xlink:href="#g" transform="matrix(1,0,0,1,507,1192) translate(32.222222222222214 43.19166666666667)"/><use xlink:href="#c" transform="matrix(1,0,0,1,507,1192) translate(73.7037037037037 43.19166666666667)"/><use xlink:href="#s" transform="matrix(1,0,0,1,507,1192) translate(92.07407407407408 43.19166666666667)"/><use xlink:href="#o" transform="matrix(1,0,0,1,507,1192) translate(133.55555555555554 43.19166666666667)"/><use xlink:href="#h" transform="matrix(1,0,0,1,507,1192) translate(151.92592592592592 43.19166666666667)"/><path d="M600 1002.46v17.57" stroke="#5e5e5e" stroke-width="2" fill="none"/><path d="M601 1002.5h-2v-1.04h2z" stroke="#5e5e5e" stroke-width=".05" fill="#5e5e5e"/><path d="M600 1035.3l-4.64-14.27h9.28z" stroke="#5e5e5e" stroke-width="2" fill="#5e5e5e"/><path d="M600 1142.46v17.58" stroke="#5e5e5e" stroke-width="2" fill="none"/><path d="M601 1142.5h-2v-1.04h2z" stroke="#5e5e5e" stroke-width=".05" fill="#5e5e5e"/><path d="M600 1175.3l-4.64-14.26h9.28z" stroke="#5e5e5e" stroke-width="2" fill="#5e5e5e"/><path d="M765.06 749.07l1.1.27 1.02.42.94.57.83.72.72.83.57.94.42 1.02.26 1.06.08 1.06-.07 560.56-.27 1.1-.42 1.02-.57.94-.72.84-.83.7-.94.58-1.02.42-1.06.26-1.06.08-154.1-.07-1.1-.28-1.02-.42-.94-.57-.83-.7-.72-.85-.57-.94-.42-1-.26-1.08-.08-1.06v-33.04h2v32.96l.06.82.2.77.3.73.4.67.5.6.6.5.67.42.73.3.72.17 153.78.06.82-.06.76-.18.73-.3.67-.4.6-.52.5-.6.4-.67.3-.72.2-.72.06-560.24-.06-.82-.2-.76-.3-.73-.4-.67-.5-.6-.6-.5-.67-.4-.73-.3-.72-.2-43.02-.06v-2z" stroke="#5e5e5e" stroke-width=".05" fill="#5e5e5e"/><path d="M606 1282.5h-2v-1.04h2z" fill="#5e5e5e"/><path d="M606.02 1282.5H604v-1.06H606zm-2-1v.96H606v-.97z" stroke="#5e5e5e" stroke-width=".05" fill="#5e5e5e"/><path d="M720.8 754.64L706.53 750l14.27-4.64z" fill="#5e5e5e"/><path d="M721.8 756l-18.5-6 18.5-6zm-12.03-6l10.03 3.26v-6.52z" stroke="#5e5e5e" stroke-width=".05" fill="#5e5e5e"/><path d="M549.18 1405.3a10 10 0 0 1 8.82-5.3h106c8.84 0 16 26.86 16 60s-7.16 60-16 60H558a10 10 0 0 1-8.82-5.3l-26.36-49.4a11.25 11.25 0 0 1 0-10.6z" stroke="#5e5e5e" stroke-width="3" fill="#fff"/><g><use xlink:href="#t" transform="matrix(1,0,0,1,525,1405) translate(57.98648148148148 59.02777777777778)"/></g><path d="M457.7 1352.5l.07.82.18.76.3.72.4.67.52.6.6.5.67.42.72.3.72.16 132.16.07 1.06.1 1.06.24 1.02.43.94.57.83.7.72.85.57.94.42 1 .27 1.12.07 16.55h-2l-.07-16.3-.18-.74-.3-.73-.4-.67-.52-.6-.6-.5-.66-.42-.73-.3-.76-.18-.82-.07-132.3-.07-1.12-.26-1.02-.43-.93-.57-.85-.7-.7-.85-.6-.94-.4-1-.26-1.07-.1-1.06.03-216h2zm38-601.5h-32.96l-.82.06-.76.2-.72.3-.67.4-.6.5-.5.6-.42.67-.3.73-.17.72-.05 360.07h-2l.05-360.3.26-1.1.42-1.03.58-.94.7-.83.85-.72.92-.57 1.02-.42 1.07-.26 1.06-.08h33.04z" stroke="#e81313" stroke-width=".05" fill="#e81313"/><path d="M496.7 750l.1 1h-1.12v-2h1.12z" fill="#e81313"/><path d="M496.73 750l.1 1.02h-1.18V749h1.18zm-1.03-.98V751h1.07l-.1-.98.1-.98z" stroke="#e81313" stroke-width=".05" fill="#e81313"/><path d="M600 1395.3l-4.64-14.27h9.28z" fill="#e81313"/><path d="M600 1398.53l-6-18.5h12zm-3.26-16.5l3.26 10.03 3.26-10.03z" stroke="#e81313" stroke-width=".05" fill="#e81313"/><g><use xlink:href="#u" transform="matrix(1,0,0,1,437.0001716904492,1115.2488475054272) translate(0 14.222222222222223)"/></g><path d="M648 1560c17.67 0 32 17.9 32 40s-14.33 40-32 40h-96c-17.67 0-32-17.9-32-40s14.33-40 32-40z" stroke="#5e5e5e" stroke-width="3" fill="#fff"/><g><use xlink:href="#v" transform="matrix(1,0,0,1,525,1565) translate(60.24691358024691 39.65277777777778)"/></g><path d="M600.4 1522.5v17.5" stroke="#5e5e5e" stroke-width="2" fill="none"/><path d="M601.4 1522.53h-2v-1.03h2z" stroke="#5e5e5e" stroke-width=".05" fill="#5e5e5e"/><path d="M600.4 1555.26l-4.63-14.26h9.27z" stroke="#5e5e5e" stroke-width="2" fill="#5e5e5e"/><defs><path fill="#333" d="M24-231v-30h32v30H24zM24 0v-190h32V0H24" id="w"/><path fill="#333" d="M117-194c89-4 53 116 60 194h-32v-121c0-31-8-49-39-48C34-167 62-67 57 0H25l-1-190h30c1 10-1 24 2 32 11-22 29-35 61-36" id="x"/><path fill="#333" d="M96-169c-40 0-48 33-48 73s9 75 48 75c24 0 41-14 43-38l32 2c-6 37-31 61-74 61-59 0-76-41-82-99-10-93 101-131 147-64 4 7 5 14 7 22l-32 3c-4-21-16-35-41-35" id="y"/><path fill="#333" d="M100-194c62-1 85 37 85 99 1 63-27 99-86 99S16-35 15-95c0-66 28-99 85-99zM99-20c44 1 53-31 53-75 0-43-8-75-51-75s-53 32-53 75 10 74 51 75" id="z"/><g id="a"><use transform="matrix(0.06172839506172839,0,0,0.06172839506172839,0,0)" xlink:href="#w"/><use transform="matrix(0.06172839506172839,0,0,0.06172839506172839,4.876543209876543,0)" xlink:href="#x"/><use transform="matrix(0.06172839506172839,0,0,0.06172839506172839,17.22222222222222,0)" xlink:href="#w"/><use transform="matrix(0.06172839506172839,0,0,0.06172839506172839,22.098765432098766,0)" xlink:href="#y"/><use transform="matrix(0.06172839506172839,0,0,0.06172839506172839,33.20987654320987,0)" xlink:href="#w"/><use transform="matrix(0.06172839506172839,0,0,0.06172839506172839,38.08641975308642,0)" xlink:href="#z"/></g><path d="M141-36C126-15 110 5 73 4 37 3 15-17 15-53c-1-64 63-63 125-63 3-35-9-54-41-54-24 1-41 7-42 31l-33-3c5-37 33-52 76-52 45 0 72 20 72 64v82c-1 20 7 32 28 27v20c-31 9-61-2-59-35zM48-53c0 20 12 33 32 33 41-3 63-29 60-74-43 2-92-5-92 41" id="A"/><path d="M24 0v-261h32V0H24" id="B"/><path d="M59-47c-2 24 18 29 38 22v24C64 9 27 4 27-40v-127H5v-23h24l9-43h21v43h35v23H59v120" id="C"/><path d="M84 4C-5 8 30-112 23-190h32v120c0 31 7 50 39 49 72-2 45-101 50-169h31l1 190h-30c-1-10 1-25-2-33-11 22-28 36-60 37" id="D"/><path d="M114-163C36-179 61-72 57 0H25l-1-190h30c1 12-1 29 2 39 6-27 23-49 58-41v29" id="E"/><path d="M153-248C145-148 188 4 80 4 36 3 13-21 6-62l32-5c4 25 16 42 43 43 27 0 39-20 39-49v-147H72v-28h81" id="F"/><path d="M100-194c62-1 85 37 85 99 1 63-27 99-86 99S16-35 15-95c0-66 28-99 85-99zM99-20c44 1 53-31 53-75 0-43-8-75-51-75s-53 32-53 75 10 74 51 75" id="G"/><g id="b"><use transform="matrix(0.05925925925925927,0,0,0.05925925925925927,0,0)" xlink:href="#A"/><use transform="matrix(0.05925925925925927,0,0,0.05925925925925927,11.851851851851853,0)" xlink:href="#B"/><use transform="matrix(0.05925925925925927,0,0,0.05925925925925927,16.533333333333335,0)" xlink:href="#C"/><use transform="matrix(0.05925925925925927,0,0,0.05925925925925927,22.459259259259262,0)" xlink:href="#D"/><use transform="matrix(0.05925925925925927,0,0,0.05925925925925927,34.31111111111112,0)" xlink:href="#E"/><use transform="matrix(0.05925925925925927,0,0,0.05925925925925927,41.36296296296297,0)" xlink:href="#A"/><use transform="matrix(0.05925925925925927,0,0,0.05925925925925927,53.21481481481482,0)" xlink:href="#F"/><use transform="matrix(0.05925925925925927,0,0,0.05925925925925927,63.881481481481494,0)" xlink:href="#G"/><use transform="matrix(0.05925925925925927,0,0,0.05925925925925927,75.73333333333333,0)" xlink:href="#A"/><use transform="matrix(0.05925925925925927,0,0,0.05925925925925927,87.58518518518518,0)" xlink:href="#G"/></g><path d="M18-150v-26h174v26H18zm0 90v-26h174v26H18" id="H"/><use transform="matrix(0.05925925925925927,0,0,0.05925925925925927,0,0)" xlink:href="#H" id="c"/><path d="M27 0v-27h64v-190l-56 39v-29l58-41h29v221h61V0H27" id="I"/><path d="M126-127c33 6 58 20 58 59 0 88-139 92-164 29-3-8-5-16-6-25l32-3c6 27 21 44 54 44 32 0 52-15 52-46 0-38-36-46-79-43v-28c39 1 72-4 72-42 0-27-17-43-46-43-28 0-47 15-49 41l-32-3c6-42 35-63 81-64 48-1 79 21 79 65 0 36-21 52-52 59" id="J"/><path d="M155-56V0h-30v-56H8v-25l114-167h33v167h35v25h-35zm-30-156c-27 46-58 90-88 131h88v-131" id="K"/><g id="d"><use transform="matrix(0.05925925925925927,0,0,0.05925925925925927,0,0)" xlink:href="#I"/><use transform="matrix(0.05925925925925927,0,0,0.05925925925925927,11.851851851851853,0)" xlink:href="#J"/><use transform="matrix(0.05925925925925927,0,0,0.05925925925925927,23.703703703703706,0)" xlink:href="#K"/></g><path d="M30-248c87 1 191-15 191 75 0 78-77 80-158 76V0H30v-248zm33 125c57 0 124 11 124-50 0-59-68-47-124-48v98" id="L"/><path d="M100-194c63 0 86 42 84 106H49c0 40 14 67 53 68 26 1 43-12 49-29l28 8c-11 28-37 45-77 45C44 4 14-33 15-96c1-61 26-98 85-98zm52 81c6-60-76-77-97-28-3 7-6 17-6 28h103" id="M"/><path d="M85-194c31 0 48 13 60 33l-1-100h32l1 261h-30c-2-10 0-23-3-31C134-8 116 4 85 4 32 4 16-35 15-94c0-66 23-100 70-100zm9 24c-40 0-46 34-46 75 0 40 6 74 45 74 42 0 51-32 51-76 0-42-9-74-50-73" id="N"/><g id="e"><use transform="matrix(0.05925925925925927,0,0,0.05925925925925927,0,0)" xlink:href="#A"/><use transform="matrix(0.05925925925925927,0,0,0.05925925925925927,11.851851851851853,0)" xlink:href="#B"/><use transform="matrix(0.05925925925925927,0,0,0.05925925925925927,16.533333333333335,0)" xlink:href="#C"/><use transform="matrix(0.05925925925925927,0,0,0.05925925925925927,22.459259259259262,0)" xlink:href="#D"/><use transform="matrix(0.05925925925925927,0,0,0.05925925925925927,34.31111111111112,0)" xlink:href="#E"/><use transform="matrix(0.05925925925925927,0,0,0.05925925925925927,41.36296296296297,0)" xlink:href="#A"/><use transform="matrix(0.05925925925925927,0,0,0.05925925925925927,53.21481481481482,0)" xlink:href="#L"/><use transform="matrix(0.05925925925925927,0,0,0.05925925925925927,67.43703703703704,0)" xlink:href="#M"/><use transform="matrix(0.05925925925925927,0,0,0.05925925925925927,79.28888888888889,0)" xlink:href="#N"/><use transform="matrix(0.05925925925925927,0,0,0.05925925925925927,91.14074074074074,0)" xlink:href="#E"/><use transform="matrix(0.05925925925925927,0,0,0.05925925925925927,98.19259259259259,0)" xlink:href="#G"/></g><path d="M54-142c48-35 137-8 131 61C196 18 31 33 14-55l32-4c7 23 22 37 52 37 35-1 51-22 54-58 4-55-73-65-99-34H22l8-134h141v27H59" id="O"/><g id="f"><use transform="matrix(0.05925925925925927,0,0,0.05925925925925927,0,0)" xlink:href="#I"/><use transform="matrix(0.05925925925925927,0,0,0.05925925925925927,11.851851851851853,0)" xlink:href="#K"/><use transform="matrix(0.05925925925925927,0,0,0.05925925925925927,23.703703703703706,0)" xlink:href="#O"/></g><path d="M117-194c89-4 53 116 60 194h-32v-121c0-31-8-49-39-48C34-167 62-67 57 0H25l-1-190h30c1 10-1 24 2 32 11-22 29-35 61-36" id="P"/><g id="g"><use transform="matrix(0.05925925925925927,0,0,0.05925925925925927,0,0)" xlink:href="#A"/><use transform="matrix(0.05925925925925927,0,0,0.05925925925925927,11.851851851851853,0)" xlink:href="#P"/><use transform="matrix(0.05925925925925927,0,0,0.05925925925925927,23.703703703703706,0)" xlink:href="#G"/></g><use transform="matrix(0.05925925925925927,0,0,0.05925925925925927,0,0)" xlink:href="#I" id="h"/><g id="i"><use transform="matrix(0.05925925925925927,0,0,0.05925925925925927,0,0)" xlink:href="#A"/><use transform="matrix(0.05925925925925927,0,0,0.05925925925925927,11.851851851851853,0)" xlink:href="#B"/><use transform="matrix(0.05925925925925927,0,0,0.05925925925925927,16.533333333333335,0)" xlink:href="#C"/><use transform="matrix(0.05925925925925927,0,0,0.05925925925925927,22.459259259259262,0)" xlink:href="#D"/><use transform="matrix(0.05925925925925927,0,0,0.05925925925925927,34.31111111111112,0)" xlink:href="#E"/><use transform="matrix(0.05925925925925927,0,0,0.05925925925925927,41.36296296296297,0)" xlink:href="#A"/><use transform="matrix(0.05925925925925927,0,0,0.05925925925925927,53.21481481481482,0)" xlink:href="#L"/><use transform="matrix(0.05925925925925927,0,0,0.05925925925925927,67.43703703703704,0)" xlink:href="#M"/><use transform="matrix(0.05925925925925927,0,0,0.05925925925925927,79.28888888888889,0)" xlink:href="#N"/><use transform="matrix(0.05925925925925927,0,0,0.05925925925925927,91.14074074074074,0)" xlink:href="#E"/><use transform="matrix(0.05925925925925927,0,0,0.05925925925925927,98.19259259259259,0)" xlink:href="#G"/></g><path d="M18-27v-27l151-64-151-65v-27l175 74v36" id="Q"/><g id="j"><use transform="matrix(0.05925925925925927,0,0,0.05925925925925927,0,0)" xlink:href="#Q"/><use transform="matrix(0.05925925925925927,0,0,0.05925925925925927,12.444444444444446,0)" xlink:href="#H"/></g><g id="k"><use transform="matrix(0.05925925925925927,0,0,0.05925925925925927,0,0)" xlink:href="#A"/><use transform="matrix(0.05925925925925927,0,0,0.05925925925925927,11.851851851851853,0)" xlink:href="#B"/><use transform="matrix(0.05925925925925927,0,0,0.05925925925925927,16.533333333333335,0)" xlink:href="#C"/><use transform="matrix(0.05925925925925927,0,0,0.05925925925925927,22.459259259259262,0)" xlink:href="#D"/><use transform="matrix(0.05925925925925927,0,0,0.05925925925925927,34.31111111111112,0)" xlink:href="#E"/><use transform="matrix(0.05925925925925927,0,0,0.05925925925925927,41.36296296296297,0)" xlink:href="#A"/><use transform="matrix(0.05925925925925927,0,0,0.05925925925925927,53.21481481481482,0)" xlink:href="#F"/><use transform="matrix(0.05925925925925927,0,0,0.05925925925925927,63.881481481481494,0)" xlink:href="#G"/><use transform="matrix(0.05925925925925927,0,0,0.05925925925925927,75.73333333333333,0)" xlink:href="#A"/><use transform="matrix(0.05925925925925927,0,0,0.05925925925925927,87.58518518518518,0)" xlink:href="#G"/></g><path fill="#333" d="M169-182c-1-43-94-46-97-3 18 66 151 10 154 114 3 95-165 93-204 36-6-8-10-19-12-30l50-8c3 46 112 56 116 5-17-69-150-10-154-114-4-87 153-88 188-35 5 8 8 18 10 28" id="R"/><path fill="#333" d="M25-224v-37h50v37H25zM25 0v-190h50V0H25" id="S"/><path fill="#333" d="M220-157c-53 9-28 100-34 157h-49v-107c1-27-5-49-29-50C55-147 81-57 75 0H25l-1-190h47c2 12-1 28 3 38 10-53 101-56 108 0 13-22 24-43 59-42 82 1 51 116 57 194h-49v-107c-1-25-5-48-29-50" id="T"/><g id="l"><use transform="matrix(0.04938271604938272,0,0,0.04938271604938272,0,0)" xlink:href="#R"/><use transform="matrix(0.04938271604938272,0,0,0.04938271604938272,11.851851851851853,0)" xlink:href="#S"/><use transform="matrix(0.04938271604938272,0,0,0.04938271604938272,16.790123456790127,0)" xlink:href="#T"/></g><use transform="matrix(0.05925925925925927,0,0,0.05925925925925927,0,0)" xlink:href="#H" id="m"/><g id="n"><use transform="matrix(0.05925925925925927,0,0,0.05925925925925927,0,0)" xlink:href="#A"/><use transform="matrix(0.05925925925925927,0,0,0.05925925925925927,11.851851851851853,0)" xlink:href="#B"/><use transform="matrix(0.05925925925925927,0,0,0.05925925925925927,16.533333333333335,0)" xlink:href="#C"/><use transform="matrix(0.05925925925925927,0,0,0.05925925925925927,22.459259259259262,0)" xlink:href="#D"/><use transform="matrix(0.05925925925925927,0,0,0.05925925925925927,34.31111111111112,0)" xlink:href="#E"/><use transform="matrix(0.05925925925925927,0,0,0.05925925925925927,41.36296296296297,0)" xlink:href="#A"/><use transform="matrix(0.05925925925925927,0,0,0.05925925925925927,53.21481481481482,0)" xlink:href="#F"/><use transform="matrix(0.05925925925925927,0,0,0.05925925925925927,63.881481481481494,0)" xlink:href="#G"/><use transform="matrix(0.05925925925925927,0,0,0.05925925925925927,75.73333333333333,0)" xlink:href="#A"/><use transform="matrix(0.05925925925925927,0,0,0.05925925925925927,87.58518518518518,0)" xlink:href="#G"/></g><path d="M118-107v75H92v-75H18v-26h74v-75h26v75h74v26h-74" id="U"/><use transform="matrix(0.05925925925925927,0,0,0.05925925925925927,0,0)" xlink:href="#U" id="o"/><path d="M101-251c82-7 93 87 43 132L82-64C71-53 59-42 53-27h129V0H18c2-99 128-94 128-182 0-28-16-43-45-43s-46 15-49 41l-32-3c6-41 34-60 81-64" id="V"/><path d="M33 0v-38h34V0H33" id="W"/><g id="p"><use transform="matrix(0.05925925925925927,0,0,0.05925925925925927,0,0)" xlink:href="#V"/><use transform="matrix(0.05925925925925927,0,0,0.05925925925925927,11.851851851851853,0)" xlink:href="#W"/><use transform="matrix(0.05925925925925927,0,0,0.05925925925925927,17.77777777777778,0)" xlink:href="#O"/></g><g id="q"><use transform="matrix(0.05925925925925927,0,0,0.05925925925925927,0,0)" xlink:href="#A"/><use transform="matrix(0.05925925925925927,0,0,0.05925925925925927,11.851851851851853,0)" xlink:href="#B"/><use transform="matrix(0.05925925925925927,0,0,0.05925925925925927,16.533333333333335,0)" xlink:href="#C"/><use transform="matrix(0.05925925925925927,0,0,0.05925925925925927,22.459259259259262,0)" xlink:href="#D"/><use transform="matrix(0.05925925925925927,0,0,0.05925925925925927,34.31111111111112,0)" xlink:href="#E"/><use transform="matrix(0.05925925925925927,0,0,0.05925925925925927,41.36296296296297,0)" xlink:href="#A"/><use transform="matrix(0.05925925925925927,0,0,0.05925925925925927,53.21481481481482,0)" xlink:href="#L"/><use transform="matrix(0.05925925925925927,0,0,0.05925925925925927,67.43703703703704,0)" xlink:href="#M"/><use transform="matrix(0.05925925925925927,0,0,0.05925925925925927,79.28888888888889,0)" xlink:href="#N"/><use transform="matrix(0.05925925925925927,0,0,0.05925925925925927,91.14074074074074,0)" xlink:href="#E"/><use transform="matrix(0.05925925925925927,0,0,0.05925925925925927,98.19259259259259,0)" xlink:href="#G"/></g><path d="M101-251c68 0 85 55 85 127S166 4 100 4C33 4 14-52 14-124c0-73 17-127 87-127zm-1 229c47 0 54-49 54-102s-4-102-53-102c-51 0-55 48-55 102 0 53 5 102 54 102" id="X"/><g id="r"><use transform="matrix(0.05925925925925927,0,0,0.05925925925925927,0,0)" xlink:href="#V"/><use transform="matrix(0.05925925925925927,0,0,0.05925925925925927,11.851851851851853,0)" xlink:href="#W"/><use transform="matrix(0.05925925925925927,0,0,0.05925925925925927,17.77777777777778,0)" xlink:href="#X"/></g><g id="s"><use transform="matrix(0.05925925925925927,0,0,0.05925925925925927,0,0)" xlink:href="#A"/><use transform="matrix(0.05925925925925927,0,0,0.05925925925925927,11.851851851851853,0)" xlink:href="#P"/><use transform="matrix(0.05925925925925927,0,0,0.05925925925925927,23.703703703703706,0)" xlink:href="#G"/></g><path fill="#333" d="M141-36C126-15 110 5 73 4 37 3 15-17 15-53c-1-64 63-63 125-63 3-35-9-54-41-54-24 1-41 7-42 31l-33-3c5-37 33-52 76-52 45 0 72 20 72 64v82c-1 20 7 32 28 27v20c-31 9-61-2-59-35zM48-53c0 20 12 33 32 33 41-3 63-29 60-74-43 2-92-5-92 41" id="Y"/><g id="t"><use transform="matrix(0.06172839506172839,0,0,0.06172839506172839,0,0)" xlink:href="#Y"/><use transform="matrix(0.06172839506172839,0,0,0.06172839506172839,12.345679012345679,0)" xlink:href="#x"/><use transform="matrix(0.06172839506172839,0,0,0.06172839506172839,24.691358024691358,0)" xlink:href="#z"/></g><path fill="#333" d="M175 0L67-191c6 58 2 128 3 191H24v-248h59L193-55c-6-58-2-129-3-193h46V0h-61" id="Z"/><path fill="#333" d="M101-320c28 0 65 44 74 0h23c0 29-10 51-39 51-28-1-66-45-74 0H61c2-28 9-52 40-51zM199 0l-22-63H83L61 0H9l90-248h61L250 0h-51zm-33-102l-36-108c-10 38-24 72-36 108h72" id="aa"/><path fill="#333" d="M140-251c80 0 125 45 125 126S219 4 139 4C58 4 15-44 15-125s44-126 125-126zm-1 214c52 0 73-35 73-88 0-50-21-86-72-86-52 0-73 35-73 86s22 88 72 88" id="ab"/><g id="u"><use transform="matrix(0.04938271604938272,0,0,0.04938271604938272,0,0)" xlink:href="#Z"/><use transform="matrix(0.04938271604938272,0,0,0.04938271604938272,12.790123456790125,0)" xlink:href="#aa"/><use transform="matrix(0.04938271604938272,0,0,0.04938271604938272,25.58024691358025,0)" xlink:href="#ab"/></g><path fill="#333" d="M101-234c-31-9-42 10-38 44h38v23H63V0H32v-167H5v-23h27c-7-52 17-82 69-68v24" id="ac"/><path fill="#333" d="M210-169c-67 3-38 105-44 169h-31v-121c0-29-5-50-35-48C34-165 62-65 56 0H25l-1-190h30c1 10-1 24 2 32 10-44 99-50 107 0 11-21 27-35 58-36 85-2 47 119 55 194h-31v-121c0-29-5-49-35-48" id="ad"/><g id="v"><use transform="matrix(0.06172839506172839,0,0,0.06172839506172839,0,0)" xlink:href="#ac"/><use transform="matrix(0.06172839506172839,0,0,0.06172839506172839,6.172839506172839,0)" xlink:href="#w"/><use transform="matrix(0.06172839506172839,0,0,0.06172839506172839,11.049382716049383,0)" xlink:href="#ad"/></g></defs></g></svg>